<svg xmlns="http://www.w3.org/2000/svg" xmlns:xlink="http://www.w3.org/1999/xlink" width="500" zoomAndPan="magnify" viewBox="0 0 375 374.999991" height="500" preserveAspectRatio="xMidYMid meet" version="1.0"><defs><g/><clipPath id="994760ea82"><path d="M 164 127.519531 L 211 127.519531 L 211 179 L 164 179 Z M 164 127.519531 " clip-rule="nonzero"/></clipPath><clipPath id="d8799da567"><path d="M 162 127.519531 L 213 127.519531 L 213 181 L 162 181 Z M 162 127.519531 " clip-rule="nonzero"/></clipPath><clipPath id="f1dc810907"><path d="M 189 142 L 262.5 142 L 262.5 209 L 189 209 Z M 189 142 " clip-rule="nonzero"/></clipPath><clipPath id="3fe3277f1b"><path d="M 187 140 L 262.5 140 L 262.5 211 L 187 211 Z M 187 140 " clip-rule="nonzero"/></clipPath><clipPath id="b4ce56ca51"><path d="M 112.5 139 L 224 139 L 224 227 L 112.5 227 Z M 112.5 139 " clip-rule="nonzero"/></clipPath><clipPath id="c6b592dee8"><path d="M 204 203 L 240 203 L 240 237.019531 L 204 237.019531 Z M 204 203 " clip-rule="nonzero"/></clipPath></defs><g clip-path="url(#994760ea82)"><path fill="#ffffff" d="M 167.265625 160.859375 C 168.234375 157.960938 167.265625 152.808594 167.589844 149.589844 C 167.914062 147.65625 169.203125 145.722656 170.171875 143.792969 C 170.816406 141.859375 171.785156 139.28125 174.042969 138.636719 C 173.398438 140.570312 173.074219 140.570312 172.429688 142.179688 L 171.460938 145.722656 C 170.816406 147.332031 169.847656 147.976562 169.527344 149.589844 C 168.878906 151.84375 169.203125 157.316406 169.203125 159.894531 C 169.203125 160.539062 169.203125 161.503906 168.558594 162.148438 C 167.589844 163.4375 164.6875 162.46875 165.007812 165.691406 C 165.007812 166.011719 165.007812 166.65625 165.332031 166.980469 C 166.621094 169.878906 171.785156 170.84375 174.363281 172.132812 C 176.945312 173.742188 176.300781 175.351562 178.882812 176.964844 C 181.460938 178.894531 188.238281 178.894531 191.464844 178.574219 C 192.429688 178.25 194.042969 178.25 195.011719 177.605469 C 197.59375 176.640625 197.914062 174.066406 200.496094 172.453125 C 202.433594 171.488281 206.625 170.84375 208.5625 167.945312 C 208.882812 167.625 209.207031 166.980469 209.207031 166.65625 C 210.175781 163.113281 205.980469 164.402344 205.011719 162.148438 C 204.367188 160.539062 205.335938 155.386719 205.65625 153.773438 L 206.625 154.742188 L 206.625 157.640625 L 206.949219 160.859375 C 210.496094 160.214844 210.175781 156.03125 210.496094 153.132812 C 211.140625 145.402344 211.140625 140.570312 205.65625 134.453125 C 202.433594 131.230469 198.238281 128.65625 193.722656 128.011719 L 190.816406 128.011719 L 188.558594 127.6875 L 185.980469 128.011719 C 181.785156 128.332031 178.882812 128.332031 175.332031 130.265625 C 172.75 131.554688 171.140625 133.164062 169.203125 135.417969 C 164.363281 140.570312 163.394531 147.011719 164.363281 153.773438 C 164.6875 156.351562 165.332031 159.25 167.265625 160.859375 Z M 177.914062 151.199219 C 182.429688 150.875 185.65625 154.097656 184.042969 158.605469 C 182.753906 161.503906 179.847656 163.757812 176.625 164.402344 C 173.71875 164.726562 172.429688 162.792969 172.429688 160.214844 C 172.429688 156.03125 173.074219 152.488281 177.914062 151.199219 Z M 195.980469 151.199219 C 199.851562 151.199219 201.785156 154.417969 202.109375 157.960938 C 202.109375 158.929688 202.433594 159.894531 202.433594 160.539062 C 202.109375 162.792969 199.851562 164.402344 197.59375 164.726562 C 194.042969 164.726562 189.851562 159.25 190.171875 156.03125 C 190.816406 153.132812 193.398438 151.84375 195.980469 151.199219 Z M 190.171875 170.84375 L 186.625 170.199219 L 183.71875 171.167969 C 183.398438 168.910156 184.367188 165.691406 185.332031 163.4375 C 185.65625 162.792969 186.300781 161.503906 186.945312 161.183594 C 188.238281 160.859375 188.558594 162.46875 188.558594 163.113281 C 189.203125 165.691406 190.171875 168.269531 190.171875 170.84375 Z M 190.171875 170.84375 " fill-opacity="1" fill-rule="nonzero"/></g><g clip-path="url(#d8799da567)"><path stroke-linecap="butt" transform="matrix(0.32261, 0, 0, 0.322059, 71.452236, 110.94121)" fill="none" stroke-linejoin="miter" d="M 296.994231 154.997051 C 299.99708 145.997336 296.994231 129.99919 297.999217 120.004897 C 299.004202 114.001044 302.999929 107.997191 306.002778 102.005467 C 308.000642 96.001614 311.003491 87.996477 318.002067 85.995193 C 316.004204 91.999046 314.999218 91.999046 313.001354 96.996192 L 309.998505 107.997191 C 308.000642 112.994338 304.997793 114.995622 304.004915 120.004897 C 301.994943 127.003328 302.999929 143.996051 302.999929 152.001189 C 302.999929 154.002473 302.999929 156.998335 301.002066 158.999619 C 297.999217 163.002188 289.002777 159.994197 289.995655 170.000619 C 289.995655 170.995196 289.995655 172.996481 291.000641 174.003188 C 294.996367 183.002903 311.003491 185.998765 318.994945 190.001333 C 326.998506 194.99848 325.000643 199.995626 333.004205 205.004901 C 340.995658 210.996625 362.003495 210.996625 372.00492 210.002048 C 374.995661 208.995341 379.996373 208.995341 382.999223 206.994057 C 391.002784 203.998195 391.995662 196.005186 399.999224 190.995911 C 406.004922 188.000049 418.997089 185.998765 425.002787 176.99905 C 425.995665 176.004472 427.00065 174.003188 427.00065 172.996481 C 430.0035 161.995481 416.999225 165.99805 413.996376 158.999619 C 411.998512 154.002473 415.001362 138.004327 415.994239 132.995052 L 418.997089 136.003043 L 418.997089 145.002758 L 420.002074 154.997051 C 430.996377 152.995766 430.0035 140.005612 430.996377 131.005897 C 432.994241 107.002614 432.994241 91.999046 415.994239 73.005038 C 406.004922 62.998616 393.000648 55.005608 379.003496 53.004323 L 369.994948 53.004323 L 362.996372 51.997617 L 355.004919 53.004323 C 342.000644 53.998901 333.004205 53.998901 321.997794 60.002754 C 313.994232 64.005323 309.005628 69.002469 302.999929 76.0009 C 287.997791 91.999046 284.994942 111.99976 287.997791 132.995052 C 289.002777 141.000189 291.000641 149.999904 296.994231 154.997051 Z M 330.001356 125.002044 C 343.998508 123.995337 353.999933 134.001759 348.99922 147.99862 C 345.003493 156.998335 335.994946 163.996766 326.005629 165.99805 C 316.997081 167.004757 313.001354 161.000904 313.001354 152.995766 C 313.001354 140.005612 314.999218 129.004612 330.001356 125.002044 Z M 386.002072 125.002044 C 398.00136 125.002044 403.994951 134.996336 404.999936 145.997336 C 404.999936 149.005327 406.004922 152.001189 406.004922 154.002473 C 404.999936 161.000904 398.00136 165.99805 391.002784 167.004757 C 379.996373 167.004757 367.004207 149.999904 367.997085 140.005612 C 369.994948 131.005897 377.99851 127.003328 386.002072 125.002044 Z M 367.997085 185.998765 L 357.002782 183.99748 L 347.994234 187.005471 C 347.001357 179.994912 350.004206 170.000619 352.994947 163.002188 C 353.999933 161.000904 355.997796 156.998335 357.99566 156.003757 C 362.003495 154.997051 362.996372 159.994197 362.996372 161.995481 C 364.994236 170.000619 367.997085 178.005756 367.997085 185.998765 Z M 367.997085 185.998765 " stroke="#000000" stroke-width="1" stroke-opacity="1" stroke-miterlimit="4"/></g><path stroke-linecap="butt" transform="matrix(0.32261, 0, 0, 0.322059, 71.452236, 110.94121)" fill-opacity="1" fill="#ffffff" fill-rule="nonzero" stroke-linejoin="miter" d="M 406.9978 201.99691 C 403.994951 203.003617 399.999224 203.003617 396.996375 205.004901 C 386.994949 212.003332 391.995662 228.996055 382.999223 239.997055 C 379.003496 244.994201 369.994948 246.995485 362.996372 246.995485 C 350.004206 246.995485 333.997082 246.000908 328.003492 232.998624 C 323.00278 223.998909 330.001356 214.999194 318.994945 203.998195 C 316.997081 203.003617 313.994232 199.995626 311.996369 199.995626 C 309.005628 199.995626 309.998505 203.998195 309.998505 205.999479 L 311.003491 226.000193 C 311.003491 241.003761 314.999218 241.003761 321.997794 250.003476 C 326.005629 255.9952 328.99637 261.999053 335.994946 264.994916 C 345.003493 268.002907 355.004919 268.002907 364.001358 266.9962 C 370.999934 266.9962 374.995661 268.002907 381.994237 264.000338 C 389.004921 259.997769 401.00421 243.999623 403.002073 235.994486 L 403.994951 221.997625 C 406.004922 212.003332 406.9978 214.004616 406.9978 201.99691 Z M 406.9978 201.99691 " stroke="#000000" stroke-width="1" stroke-opacity="1" stroke-miterlimit="4"/><g clip-path="url(#f1dc810907)"><path fill="#ffffff" d="M 261.792969 142.503906 C 256.953125 149.265625 251.707031 154.996094 245.984375 161.828125 L 238.242188 170.523438 C 231.789062 176.640625 215.660156 188.558594 208.238281 193.386719 C 204.046875 196.285156 199.527344 198.542969 195.011719 200.472656 L 189.121094 203.320312 C 190.089844 204.285156 191.890625 204.816406 193.519531 205.574219 C 194.484375 205.574219 197.914062 203.695312 198.882812 203.050781 L 209.207031 197.253906 C 211.140625 195.964844 213.078125 194.355469 215.335938 194.03125 C 214.367188 196.285156 212.109375 197.574219 209.851562 198.863281 L 203.722656 202.40625 C 203.722656 202.40625 197.285156 206.066406 196.40625 206.675781 C 198.171875 207.371094 200.820312 208.171875 202.5 208.847656 C 204.113281 208.847656 206.304688 207.238281 207.59375 206.59375 C 211.140625 204.660156 215.660156 201.761719 219.207031 199.183594 L 225.015625 195.320312 C 229.53125 191.777344 234.046875 187.914062 238.242188 183.726562 C 241.46875 180.828125 244.695312 177.929688 247.273438 174.386719 C 250.824219 170.199219 253.082031 165.371094 255.664062 160.539062 C 258.566406 156.03125 259.535156 153.132812 261.148438 148.300781 C 261.46875 146.691406 262.4375 144.113281 261.792969 142.503906 Z M 261.792969 142.503906 " fill-opacity="1" fill-rule="nonzero"/></g><g clip-path="url(#3fe3277f1b)"><path stroke-linecap="butt" transform="matrix(0.32261, 0, 0, 0.322059, 71.452236, 110.94121)" fill="none" stroke-linejoin="miter" d="M 590.002087 98.002899 C 574.999949 118.998191 558.738552 136.791428 540.999946 158.005042 L 517.001369 185.004187 C 496.998519 203.998195 447.003501 241.003761 423.997801 255.9952 C 411.005635 264.994916 396.996375 272.005475 382.999223 277.997199 L 364.739962 286.839237 C 367.742811 289.835099 373.324721 291.484643 378.373866 293.837668 C 381.364607 293.837668 391.995662 288.003621 394.998511 286.002337 L 427.00065 268.002907 C 432.994241 264.000338 438.999939 259.003191 445.998515 257.996485 C 442.995666 264.994916 435.99709 268.997484 428.998514 273.000053 L 410.000649 284.001052 C 410.000649 284.001052 390.046232 295.365921 387.321873 297.258045 C 392.794807 299.417006 401.00421 301.90345 406.210763 304.001767 C 411.211475 304.001767 418.004211 299.00462 421.999938 297.003336 C 432.994241 290.999483 447.003501 281.999768 457.997804 273.994631 L 476.002791 261.999053 C 489.999943 250.998054 503.997095 239.002477 517.001369 226.000193 C 527.002794 217.000478 537.00422 208.000763 544.995673 196.999764 C 556.002084 183.99748 563.00066 169.006041 571.004222 154.002473 C 580.000661 140.005612 583.003511 131.005897 588.004223 116.002329 C 588.997101 111.005182 591.99995 103.000045 590.002087 98.002899 Z M 590.002087 98.002899 " stroke="#000000" stroke-width="1" stroke-opacity="1" stroke-miterlimit="4"/></g><path fill="#ffffff" d="M 113.714844 140.894531 C 112.746094 144.433594 114.035156 148.621094 115.328125 151.84375 C 118.230469 159.570312 123.070312 166.335938 127.910156 172.777344 C 130.8125 176.964844 135.652344 182.117188 139.199219 185.660156 L 143.070312 188.878906 L 151.460938 196.285156 C 158.234375 201.441406 170.816406 209.167969 178.558594 212.710938 L 188.882812 217.21875 L 193.078125 218.832031 C 197.914062 220.761719 202.753906 222.050781 207.917969 223.019531 C 210.820312 223.660156 214.046875 224.628906 216.949219 224.628906 C 215.980469 221.085938 214.046875 221.40625 211.140625 220.441406 L 200.496094 216.253906 C 185.65625 210.136719 169.203125 204.015625 157.589844 192.421875 C 159.847656 192.421875 161.460938 194.355469 163.074219 195.644531 C 165.332031 197.253906 168.234375 199.183594 170.816406 200.796875 C 177.914062 204.980469 194.042969 212.390625 202.109375 215.289062 C 205.335938 216.578125 210.820312 218.832031 214.046875 218.832031 C 216.625 219.152344 220.175781 217.542969 222.109375 216.253906 C 220.820312 214.964844 219.53125 215.289062 217.59375 214.964844 L 207.59375 212.066406 C 198.882812 209.8125 190.496094 206.59375 182.429688 202.40625 L 177.914062 200.472656 L 171.785156 196.609375 L 164.363281 191.777344 L 156.621094 185.660156 L 143.394531 175.351562 L 131.136719 162.792969 L 125.003906 155.707031 L 118.554688 148.621094 Z M 113.714844 140.894531 " fill-opacity="1" fill-rule="nonzero"/><g clip-path="url(#b4ce56ca51)"><path stroke-linecap="butt" transform="matrix(0.32261, 0, 0, 0.322059, 71.452236, 110.94121)" fill="none" stroke-linejoin="miter" d="M 131.002053 93.005752 C 127.999204 103.994623 131.994931 116.996906 136.002766 127.003328 C 144.999205 150.994482 160.001343 172.001903 175.003481 192.002618 C 183.999921 205.004901 199.002058 221.003047 209.996361 232.004046 L 221.99565 241.998339 L 248.004199 264.994916 C 268.999927 281.00519 308.000642 304.996344 331.999219 315.997344 L 364.001358 329.994205 L 377.005632 335.00348 C 391.995662 340.995204 406.9978 344.997773 423.004924 348.005764 C 432.001363 349.994919 442.002788 353.00291 450.999228 353.00291 C 447.996378 342.001911 442.002788 342.996489 432.994241 340.000627 L 399.999224 326.998343 C 353.999933 308.004335 302.999929 288.998199 267.002063 252.999338 C 274.000639 252.999338 279.001352 259.003191 284.002065 263.00576 C 291.000641 268.002907 299.99708 273.994631 308.000642 279.003906 C 330.001356 291.994061 379.996373 315.002766 404.999936 324.002481 C 415.001362 328.00505 432.001363 335.00348 442.002788 335.00348 C 449.994242 335.998058 461.000653 331.000912 466.994243 326.998343 C 462.998516 322.995774 459.002789 324.002481 452.997091 322.995774 L 421.999938 313.996059 C 394.998511 306.997629 369.002071 297.003336 343.998508 284.001052 L 330.001356 277.997199 L 311.003491 266.001622 L 287.997791 250.998054 L 263.999214 232.004046 L 223.000636 199.995626 L 185.004906 161.000904 L 165.994933 138.998905 L 146.004191 116.996906 Z M 131.002053 93.005752 " stroke="#000000" stroke-width="1" stroke-opacity="1" stroke-miterlimit="4"/></g><path fill="#ffffff" d="M 217.273438 220.441406 C 217.917969 221.730469 219.207031 223.660156 219.207031 225.273438 C 219.207031 228.816406 215.015625 232.035156 211.789062 231.714844 C 210.496094 231.390625 207.59375 229.78125 206.625 231.714844 C 206.304688 232.355469 206.304688 233 206.625 233.324219 C 206.625 234.613281 208.238281 235.257812 209.53125 235.898438 C 213.078125 236.867188 216.949219 235.578125 219.851562 233.644531 C 222.109375 232.355469 223.722656 230.101562 224.371094 227.527344 L 225.015625 223.339844 C 225.335938 222.050781 226.628906 221.730469 228.242188 219.476562 C 230.175781 216.898438 232.113281 212.390625 234.691406 210.457031 C 235.660156 209.8125 236.628906 209.492188 237.917969 209.167969 C 237.273438 208.203125 236.628906 207.558594 235.984375 206.59375 C 235.339844 206.269531 234.691406 205.625 234.046875 205.625 C 233.078125 205.304688 231.789062 205.304688 230.820312 205.949219 C 226.304688 208.203125 227.273438 212.390625 224.691406 215.609375 C 222.757812 218.1875 220.5 219.476562 217.273438 220.441406 Z M 217.273438 220.441406 " fill-opacity="1" fill-rule="nonzero"/><g clip-path="url(#c6b592dee8)"><path stroke-linecap="butt" transform="matrix(0.32261, 0, 0, 0.322059, 71.452236, 110.94121)" fill="none" stroke-linejoin="miter" d="M 452.004213 340.000627 C 454.002077 344.003195 457.997804 349.994919 457.997804 355.004195 C 457.997804 366.005194 445.005637 375.999487 435.004212 375.004909 C 430.996377 373.998203 421.999938 369.001056 418.997089 375.004909 C 418.004211 376.994065 418.004211 378.995349 418.997089 380.002056 C 418.997089 384.004624 423.997801 386.005909 428.005636 387.995064 C 438.999939 391.003055 450.999228 387.000486 459.995667 380.996633 C 466.994243 376.994065 471.994956 369.995634 474.004927 362.002626 L 476.002791 349.000342 C 476.995668 344.997773 481.003503 344.003195 486.004216 337.004765 C 491.997806 328.999627 498.003504 315.002766 505.994958 308.998913 C 508.997807 306.997629 512.000656 306.003051 515.996383 304.996344 C 513.99852 302.000482 512.000656 299.999198 510.002793 297.003336 C 508.00493 295.996629 505.994958 293.995345 503.997095 293.995345 C 500.994245 293.000767 496.998519 293.000767 493.995669 295.002052 C 479.998517 302.000482 483.001367 315.002766 474.997805 324.997059 C 469.004215 333.002196 462.005639 337.004765 452.004213 340.000627 Z M 452.004213 340.000627 " stroke="#000000" stroke-width="1" stroke-opacity="1" stroke-miterlimit="4"/></g><path stroke-linecap="butt" transform="matrix(0.32261, 0, 0, 0.322059, 71.452236, 110.94121)" fill-opacity="1" fill="#ffffff" fill-rule="nonzero" stroke-linejoin="miter" d="M 483.994244 353.00291 C 491.004928 355.998773 496.998519 355.004195 503.997095 355.004195 L 518.999232 355.998773 C 525.997808 355.998773 527.995672 351.996204 530.998521 346.00448 C 532.003507 344.003195 532.996384 340.000627 530.998521 337.999342 C 529.000658 335.998058 525.004931 335.998058 522.002082 335.998058 L 505.00208 337.004765 C 501.999231 337.004765 496.998519 337.004765 493.995669 337.999342 C 488.994957 340.995204 484.99923 348.005764 483.994244 353.00291 Z M 483.994244 353.00291 " stroke="#000000" stroke-width="1" stroke-opacity="1" stroke-miterlimit="4"/><path stroke-linecap="butt" transform="matrix(0.32261, 0, 0, 0.322059, 71.452236, 110.94121)" fill-opacity="1" fill="#ffffff" fill-rule="nonzero" stroke-linejoin="miter" d="M 537.997097 366.999772 C 532.996384 364.998488 530.005644 362.997203 527.002794 358.994635 C 525.997808 360.001341 525.004931 360.001341 523.999945 360.995919 C 522.994959 366.005194 535.999234 378.000771 537.997097 366.999772 Z M 537.997097 366.999772 " stroke="#000000" stroke-width="1" stroke-opacity="1" stroke-miterlimit="4"/><path stroke-linecap="butt" transform="matrix(0.32261, 0, 0, 0.322059, 71.452236, 110.94121)" fill-opacity="1" fill="#ffffff" fill-rule="nonzero" stroke-linejoin="miter" d="M 530.998521 333.002196 L 539.002083 337.999342 C 537.00422 342.001911 532.003507 349.994919 532.996384 355.004195 C 534.00137 364.998488 547.998522 364.998488 554.004221 358.994635 C 561.002797 351.001626 561.002797 339.006049 551.001372 333.002196 C 544.995673 329.994205 537.997097 331.000912 530.998521 333.002196 Z M 530.998521 333.002196 " stroke="#000000" stroke-width="1" stroke-opacity="1" stroke-miterlimit="4"/><path stroke-linecap="butt" transform="matrix(0.32261, 0, 0, 0.322059, 71.452236, 110.94121)" fill-opacity="1" fill="#ffffff" fill-rule="nonzero" stroke-linejoin="miter" d="M 172.000632 360.995919 L 173.005618 362.002626 C 180.997071 360.001341 185.997784 357.005479 187.00277 349.000342 C 180.997071 349.994919 175.003481 355.998773 172.000632 360.995919 Z M 172.000632 360.995919 " stroke="#000000" stroke-width="1" stroke-opacity="1" stroke-miterlimit="4"/><path stroke-linecap="butt" transform="matrix(0.32261, 0, 0, 0.322059, 71.452236, 110.94121)" fill-opacity="1" fill="#ffffff" fill-rule="nonzero" stroke-linejoin="miter" d="M 178.999208 324.002481 C 175.996359 322.001197 173.005618 320.99449 168.997783 320.99449 C 165.994933 320.99449 163.004193 320.99449 160.001343 322.001197 C 149.999918 326.003765 148.994932 342.001911 156.998494 349.000342 C 160.994221 353.00291 170.995646 355.004195 175.003481 349.994919 C 178.999208 346.00448 177.994222 340.995204 175.996359 335.998058 C 175.003481 333.002196 173.005618 328.999627 175.003481 326.998343 C 175.996359 324.997059 177.994222 324.997059 178.999208 324.002481 Z M 178.999208 324.002481 " stroke="#000000" stroke-width="1" stroke-opacity="1" stroke-miterlimit="4"/><path stroke-linecap="butt" transform="matrix(0.32261, 0, 0, 0.322059, 71.452236, 110.94121)" fill-opacity="1" fill="#ffffff" fill-rule="nonzero" stroke-linejoin="miter" d="M 177.994222 328.00505 C 178.999208 331.000912 183.999921 342.996489 185.997784 344.997773 C 189.000633 346.999057 192.003482 346.999057 194.994223 346.999057 L 212.99921 346.00448 L 226.003485 346.00448 C 226.003485 342.996489 226.003485 340.000627 224.998499 337.999342 C 221.99565 329.994205 211.001347 326.003765 202.997785 326.003765 L 194.001346 326.998343 C 187.995647 326.998343 182.994935 326.003765 177.994222 328.00505 Z M 177.994222 328.00505 " stroke="#000000" stroke-width="1" stroke-opacity="1" stroke-miterlimit="4"/><path stroke-linecap="butt" transform="matrix(0.32261, 0, 0, 0.322059, 71.452236, 110.94121)" fill-opacity="1" fill="#ffffff" fill-rule="nonzero" stroke-linejoin="miter" d="M 197.004195 295.996629 C 216.00206 301.005905 216.00206 317.00405 224.005621 328.00505 C 226.996362 331.995489 234.999924 337.999342 236.00491 342.001911 C 236.997788 344.997773 236.00491 346.00448 236.997788 353.00291 C 238.995651 362.002626 245.001349 371.002341 253.004911 375.999487 C 262.001351 382.00334 270.004912 386.005909 280.999215 382.997918 C 287.004914 380.996633 292.998504 376.994065 289.995655 369.995634 C 287.004914 362.997203 275.998503 369.995634 268.999927 367.99435 C 262.001351 364.998488 253.997789 355.004195 253.997789 346.999057 L 258.005624 333.002196 C 246.999213 328.999627 233.994938 319.999912 228.994226 308.998913 C 226.003485 302.000482 226.003485 291.994061 221.002772 286.996914 C 211.994225 279.998484 199.994936 286.002337 197.004195 295.996629 Z M 197.004195 295.996629 " stroke="#000000" stroke-width="1" stroke-opacity="1" stroke-miterlimit="4"/><path stroke-linecap="butt" transform="matrix(0.32261, 0, 0, 0.322059, 71.452236, 110.94121)" fill-opacity="1" fill="#ffffff" fill-rule="nonzero" stroke-linejoin="miter" d="M 245.001349 319.005335 C 248.004199 322.995774 250.002062 324.002481 253.997789 326.003765 C 267.994941 333.996774 277.003489 328.00505 291.000641 324.997059 L 319.99993 315.997344 C 316.161611 313.425997 307.576853 308.052851 304.004915 306.003051 L 284.994942 311.000197 Z M 245.001349 319.005335 " stroke="#000000" stroke-width="1" stroke-opacity="1" stroke-miterlimit="4"/><path stroke-linecap="butt" transform="matrix(0.32261, 0, 0, 0.322059, 71.452236, 110.94121)" fill-opacity="1" fill="#ffffff" fill-rule="nonzero" stroke-linejoin="miter" d="M 258.998501 348.005764 C 284.994942 348.005764 309.005628 340.000627 333.997082 333.996774 C 333.997082 333.996774 345.003493 328.793434 348.672297 328.793434 C 345.209334 326.270603 331.054774 321.152167 328.838962 319.163012 C 325.836113 320.048428 313.994232 324.002481 309.998505 324.997059 L 284.994942 331.995489 L 272.995653 335.00348 C 265.997077 337.999342 260.996365 339.006049 258.998501 348.005764 Z M 258.998501 348.005764 " stroke="#000000" stroke-width="1" stroke-opacity="1" stroke-miterlimit="4"/><path stroke-linecap="butt" transform="matrix(0.32261, 0, 0, 0.322059, 71.452236, 110.94121)" fill-opacity="1" fill="#ffffff" fill-rule="nonzero" stroke-linejoin="miter" d="M 335.994946 232.998624 C 335.994946 235.497197 336.249219 238.529446 337.254205 240.033442 C 338.247083 241.537437 342.000644 241.670856 343.00563 241.003761 C 343.804775 240.17899 342.254918 236.249195 341.371015 235.121198 C 340.49922 234.005331 338.997795 233.495913 335.994946 232.998624 Z M 335.994946 232.998624 " stroke="#000000" stroke-width="1" stroke-opacity="1" stroke-miterlimit="4"/><path stroke-linecap="butt" transform="matrix(0.32261, 0, 0, 0.322059, 71.452236, 110.94121)" fill-opacity="1" fill="#ffffff" fill-rule="nonzero" stroke-linejoin="miter" d="M 343.998508 234.005331 L 345.003493 239.002477 C 345.003493 239.997055 345.996371 241.998339 347.001357 243.005046 C 350.997084 244.994201 352.994947 234.999908 350.004206 234.005331 C 347.994234 232.998624 345.996371 234.005331 343.998508 234.005331 Z M 343.998508 234.005331 " stroke="#000000" stroke-width="1" stroke-opacity="1" stroke-miterlimit="4"/><path stroke-linecap="butt" transform="matrix(0.32261, 0, 0, 0.322059, 71.452236, 110.94121)" fill-opacity="1" fill="#ffffff" fill-rule="nonzero" stroke-linejoin="miter" d="M 355.997796 234.999908 C 352.994947 237.001193 352.910189 240.724795 354.036258 242.59266 C 355.162326 244.472654 357.499221 244.496912 359.000645 243.999623 C 360.005631 243.502335 361.494948 241.003761 361.628138 238.747768 C 361.749221 236.503904 360.50207 234.50262 355.997796 234.999908 Z M 355.997796 234.999908 " stroke="#000000" stroke-width="1" stroke-opacity="1" stroke-miterlimit="4"/><path stroke-linecap="butt" transform="matrix(0.32261, 0, 0, 0.322059, 71.452236, 110.94121)" fill-opacity="1" fill="#ffffff" fill-rule="nonzero" stroke-linejoin="miter" d="M 345.003493 221.997625 C 347.703636 223.392459 352.171585 221.912722 352.171585 221.912722 L 352.002069 216.005901 C 350.997084 212.003332 347.994234 210.996625 345.996371 212.99791 C 345.003493 214.999194 345.003493 219.99634 345.003493 221.997625 Z M 345.003493 221.997625 " stroke="#000000" stroke-width="1" stroke-opacity="1" stroke-miterlimit="4"/><path stroke-linecap="butt" transform="matrix(0.32261, 0, 0, 0.322059, 71.452236, 110.94121)" fill-opacity="1" fill="#ffffff" fill-rule="nonzero" stroke-linejoin="miter" d="M 360.005631 212.003332 C 359.000645 212.003332 355.864605 211.481785 354.871728 212.476363 C 352.910189 214.44126 352.002069 221.003047 355.004919 223.004331 C 356.869591 223.477362 360.005631 223.914006 360.998509 219.911437 L 360.998509 217.000478 C 360.998509 217.000478 360.962184 213.749907 360.005631 212.003332 Z M 360.005631 212.003332 " stroke="#000000" stroke-width="1" stroke-opacity="1" stroke-miterlimit="4"/><path stroke-linecap="butt" transform="matrix(0.32261, 0, 0, 0.322059, 71.452236, 110.94121)" fill-opacity="1" fill="#ffffff" fill-rule="nonzero" stroke-linejoin="miter" d="M 369.994948 243.999623 C 370.915176 244.39988 372.00492 243.005046 372.997797 241.998339 C 379.996373 234.999908 365.430133 229.384183 367.997085 239.997055 C 367.997085 239.997055 368.953638 243.829817 369.994948 243.999623 Z M 369.994948 243.999623 " stroke="#000000" stroke-width="1" stroke-opacity="1" stroke-miterlimit="4"/><path stroke-linecap="butt" transform="matrix(0.32261, 0, 0, 0.322059, 71.452236, 110.94121)" fill-opacity="1" fill="#ffffff" fill-rule="nonzero" stroke-linejoin="miter" d="M 341.734262 210.996625 C 340.741385 210.657013 338.997795 210.996625 338.004917 210.996625 C 330.219304 214.526163 340.002781 228.001478 343.00563 219.001763 L 343.00563 216.005901 C 343.00563 216.005901 342.436542 211.348366 341.734262 210.996625 Z M 341.734262 210.996625 " stroke="#000000" stroke-width="1" stroke-opacity="1" stroke-miterlimit="4"/><path stroke-linecap="butt" transform="matrix(0.32261, 0, 0, 0.322059, 71.452236, 110.94121)" fill-opacity="1" fill="#ffffff" fill-rule="nonzero" stroke-linejoin="miter" d="M 364.001358 212.003332 C 364.001358 212.003332 362.306201 222.131044 362.996372 223.004331 C 364.304065 223.695684 368.348224 223.525878 369.825433 222.482785 C 369.825433 219.474794 370.007056 215.969514 369.401643 214.138035 C 368.808338 212.306557 367.500646 212.500621 364.001358 212.003332 Z M 364.001358 212.003332 " stroke="#000000" stroke-width="1" stroke-opacity="1" stroke-miterlimit="4"/><path stroke-linecap="butt" transform="matrix(0.32261, 0, 0, 0.322059, 71.452236, 110.94121)" fill-opacity="1" fill="#ffffff" fill-rule="nonzero" stroke-linejoin="miter" d="M 373.566886 210.826819 L 372.997797 216.005901 C 372.997797 219.001763 373.651644 224.823681 377.64737 221.827819 C 378.155917 221.33053 379.499935 215.375193 378.942955 212.658298 C 377.913752 211.214947 376.036971 211.069399 373.566886 210.826819 Z M 373.566886 210.826819 " stroke="#000000" stroke-width="1" stroke-opacity="1" stroke-miterlimit="4"/><g fill="#545454" fill-opacity="1"><g transform="translate(85.947559, 262.694231)"><g><path d="M 2.210938 -4.277344 L 2.964844 -6.417969 C 3.421875 -7.714844 3.804688 -8.804688 4.203125 -10.148438 L 4.261719 -10.148438 C 4.660156 -8.804688 5.03125 -7.714844 5.488281 -6.417969 L 6.226562 -4.277344 Z M 7.714844 0 L 8.304688 0 L 4.46875 -10.710938 L 3.984375 -10.710938 L 0.164062 0 L 0.707031 0 L 2.050781 -3.804688 L 6.386719 -3.804688 Z M 7.714844 0 "/></g></g></g><g fill="#545454" fill-opacity="1"><g transform="translate(95.861062, 262.694231)"><g/></g></g><g fill="#545454" fill-opacity="1"><g transform="translate(100.552823, 262.694231)"><g><path d="M 1.621094 0 L 2.167969 0 L 2.167969 -5.472656 L 8.128906 -5.472656 L 8.128906 0 L 8.6875 0 L 8.6875 -10.710938 L 8.128906 -10.710938 L 8.128906 -5.960938 L 2.167969 -5.960938 L 2.167969 -10.710938 L 1.621094 -10.710938 Z M 1.621094 0 "/></g></g></g><g fill="#545454" fill-opacity="1"><g transform="translate(112.295414, 262.694231)"><g><path d="M 5.265625 0.191406 C 7.804688 0.191406 9.617188 -2.007812 9.617188 -5.382812 C 9.617188 -8.761719 7.804688 -10.902344 5.265625 -10.902344 C 2.730469 -10.902344 0.914062 -8.761719 0.914062 -5.382812 C 0.914062 -2.007812 2.730469 0.191406 5.265625 0.191406 Z M 5.265625 -0.324219 C 3.007812 -0.324219 1.488281 -2.316406 1.488281 -5.382812 C 1.488281 -8.453125 3.007812 -10.382812 5.265625 -10.382812 C 7.523438 -10.382812 9.042969 -8.453125 9.042969 -5.382812 C 9.042969 -2.316406 7.523438 -0.324219 5.265625 -0.324219 Z M 5.265625 -0.324219 "/></g></g></g><g fill="#545454" fill-opacity="1"><g transform="translate(124.27401, 262.694231)"><g><path d="M 3.9375 0 L 4.515625 0 L 4.515625 -10.222656 L 7.964844 -10.222656 L 7.964844 -10.710938 L 0.488281 -10.710938 L 0.488281 -10.222656 L 3.9375 -10.222656 Z M 3.9375 0 "/></g></g></g><g fill="#545454" fill-opacity="1"><g transform="translate(134.172753, 262.694231)"><g/></g></g><g fill="#545454" fill-opacity="1"><g transform="translate(138.864513, 262.694231)"><g><path d="M 1.621094 0 L 2.167969 0 L 2.167969 -4.71875 L 4.261719 -4.71875 C 6.667969 -4.71875 8.039062 -5.722656 8.039062 -7.789062 C 8.039062 -9.925781 6.636719 -10.710938 4.203125 -10.710938 L 1.621094 -10.710938 Z M 2.167969 -5.207031 L 2.167969 -10.222656 L 4.011719 -10.222656 C 6.328125 -10.222656 7.449219 -9.660156 7.449219 -7.789062 C 7.449219 -5.945312 6.359375 -5.207031 4.070312 -5.207031 Z M 2.167969 -5.207031 "/></g></g></g><g fill="#545454" fill-opacity="1"><g transform="translate(149.132032, 262.694231)"><g><path d="M 1.621094 0 L 2.167969 0 L 2.167969 -10.710938 L 1.621094 -10.710938 Z M 1.621094 0 "/></g></g></g><g fill="#545454" fill-opacity="1"><g transform="translate(154.369578, 262.694231)"><g><path d="M 2.167969 -5.515625 L 2.167969 -10.222656 L 4.394531 -10.222656 C 6.359375 -10.222656 7.449219 -9.617188 7.449219 -7.949219 C 7.449219 -6.296875 6.359375 -5.515625 4.394531 -5.515625 Z M 8.203125 0 L 5.175781 -5.074219 C 6.949219 -5.25 8.039062 -6.226562 8.039062 -7.949219 C 8.039062 -9.925781 6.695312 -10.710938 4.585938 -10.710938 L 1.621094 -10.710938 L 1.621094 0 L 2.167969 0 L 2.167969 -5.042969 L 4.542969 -5.042969 L 7.566406 0 Z M 8.203125 0 "/></g></g></g><g fill="#545454" fill-opacity="1"><g transform="translate(164.504345, 262.694231)"><g><path d="M 2.210938 -4.277344 L 2.964844 -6.417969 C 3.421875 -7.714844 3.804688 -8.804688 4.203125 -10.148438 L 4.261719 -10.148438 C 4.660156 -8.804688 5.03125 -7.714844 5.488281 -6.417969 L 6.226562 -4.277344 Z M 7.714844 0 L 8.304688 0 L 4.46875 -10.710938 L 3.984375 -10.710938 L 0.164062 0 L 0.707031 0 L 2.050781 -3.804688 L 6.386719 -3.804688 Z M 7.714844 0 "/></g></g></g><g fill="#545454" fill-opacity="1"><g transform="translate(174.41785, 262.694231)"><g><path d="M 3.9375 0 L 4.515625 0 L 4.515625 -10.222656 L 7.964844 -10.222656 L 7.964844 -10.710938 L 0.488281 -10.710938 L 0.488281 -10.222656 L 3.9375 -10.222656 Z M 3.9375 0 "/></g></g></g><g fill="#545454" fill-opacity="1"><g transform="translate(184.316598, 262.694231)"><g><path d="M 1.621094 0 L 7.539062 0 L 7.539062 -0.488281 L 2.167969 -0.488281 L 2.167969 -5.472656 L 6.535156 -5.472656 L 6.535156 -5.960938 L 2.167969 -5.960938 L 2.167969 -10.222656 L 7.375 -10.222656 L 7.375 -10.710938 L 1.621094 -10.710938 Z M 1.621094 0 "/></g></g></g><g fill="#545454" fill-opacity="1"><g transform="translate(194.053095, 262.694231)"><g/></g></g><g fill="#545454" fill-opacity="1"><g transform="translate(198.744859, 262.694231)"><g><path d="M 1.621094 0 L 4.042969 0 C 7.347656 0 8.835938 -2.199219 8.835938 -5.382812 C 8.835938 -8.585938 7.347656 -10.710938 4.027344 -10.710938 L 1.621094 -10.710938 Z M 2.167969 -0.488281 L 2.167969 -10.222656 L 3.953125 -10.222656 C 6.992188 -10.222656 8.261719 -8.214844 8.261719 -5.382812 C 8.261719 -2.566406 6.992188 -0.488281 3.953125 -0.488281 Z M 2.167969 -0.488281 "/></g></g></g><g fill="#545454" fill-opacity="1"><g transform="translate(209.941667, 262.694231)"><g><path d="M 2.210938 -4.277344 L 2.964844 -6.417969 C 3.421875 -7.714844 3.804688 -8.804688 4.203125 -10.148438 L 4.261719 -10.148438 C 4.660156 -8.804688 5.03125 -7.714844 5.488281 -6.417969 L 6.226562 -4.277344 Z M 7.714844 0 L 8.304688 0 L 4.46875 -10.710938 L 3.984375 -10.710938 L 0.164062 0 L 0.707031 0 L 2.050781 -3.804688 L 6.386719 -3.804688 Z M 7.714844 0 "/></g></g></g><g fill="#545454" fill-opacity="1"><g transform="translate(219.855173, 262.694231)"><g><path d="M 3.9375 0 L 4.515625 0 L 4.515625 -10.222656 L 7.964844 -10.222656 L 7.964844 -10.710938 L 0.488281 -10.710938 L 0.488281 -10.222656 L 3.9375 -10.222656 Z M 3.9375 0 "/></g></g></g><g fill="#545454" fill-opacity="1"><g transform="translate(229.753921, 262.694231)"><g><path d="M 1.621094 0 L 2.167969 0 L 2.167969 -10.710938 L 1.621094 -10.710938 Z M 1.621094 0 "/></g></g></g><g fill="#545454" fill-opacity="1"><g transform="translate(234.991462, 262.694231)"><g><path d="M 1.621094 0 L 2.140625 0 L 2.140625 -6.976562 C 2.140625 -7.996094 2.109375 -8.910156 2.078125 -9.914062 L 2.140625 -9.914062 L 3.363281 -7.804688 L 8.070312 0 L 8.660156 0 L 8.660156 -10.710938 L 8.128906 -10.710938 L 8.128906 -3.820312 C 8.128906 -2.816406 8.15625 -1.828125 8.214844 -0.796875 L 8.140625 -0.796875 L 6.917969 -2.90625 L 2.199219 -10.710938 L 1.621094 -10.710938 Z M 1.621094 0 "/></g></g></g><g fill="#545454" fill-opacity="1"><g transform="translate(246.70453, 262.694231)"><g><path d="M 5.429688 0.191406 C 6.828125 0.191406 7.90625 -0.296875 8.570312 -1.003906 L 8.570312 -5.175781 L 5.355469 -5.175781 L 5.355469 -4.691406 L 7.996094 -4.691406 L 7.996094 -1.179688 C 7.464844 -0.648438 6.492188 -0.324219 5.472656 -0.324219 C 2.980469 -0.324219 1.488281 -2.316406 1.488281 -5.382812 C 1.488281 -8.453125 3.054688 -10.382812 5.589844 -10.382812 C 6.785156 -10.382812 7.566406 -9.867188 8.113281 -9.261719 L 8.453125 -9.632812 C 7.90625 -10.222656 7.019531 -10.902344 5.589844 -10.902344 C 2.773438 -10.902344 0.914062 -8.761719 0.914062 -5.382812 C 0.914062 -2.007812 2.714844 0.191406 5.429688 0.191406 Z M 5.429688 0.191406 "/></g></g></g><g fill="#545454" fill-opacity="1"><g transform="translate(257.90133, 262.694231)"><g/></g></g><g fill="#545454" fill-opacity="1"><g transform="translate(262.593085, 262.694231)"><g><path d="M 4.351562 0.191406 C 6.371094 0.191406 7.699219 -1.003906 7.699219 -2.640625 C 7.699219 -4.292969 6.636719 -4.925781 5.429688 -5.472656 L 3.789062 -6.210938 C 3.039062 -6.550781 1.917969 -7.035156 1.917969 -8.378906 C 1.917969 -9.589844 2.90625 -10.382812 4.394531 -10.382812 C 5.488281 -10.382812 6.359375 -9.925781 6.976562 -9.261719 L 7.316406 -9.632812 C 6.695312 -10.3125 5.695312 -10.902344 4.394531 -10.902344 C 2.65625 -10.902344 1.355469 -9.867188 1.355469 -8.320312 C 1.355469 -6.742188 2.609375 -6.105469 3.539062 -5.695312 L 5.175781 -4.957031 C 6.253906 -4.46875 7.152344 -4.027344 7.152344 -2.597656 C 7.152344 -1.253906 6.0625 -0.324219 4.351562 -0.324219 C 3.066406 -0.324219 1.933594 -0.898438 1.152344 -1.8125 L 0.78125 -1.429688 C 1.59375 -0.488281 2.773438 0.191406 4.351562 0.191406 Z M 4.351562 0.191406 "/></g></g></g><g fill="#545454" fill-opacity="1"><g transform="translate(272.432827, 262.694231)"><g><path d="M 1.621094 0 L 2.167969 0 L 2.167969 -10.710938 L 1.621094 -10.710938 Z M 1.621094 0 "/></g></g></g><g fill="#545454" fill-opacity="1"><g transform="translate(277.670368, 262.694231)"><g><path d="M 1.621094 0 L 2.140625 0 L 2.140625 -7.40625 C 2.140625 -8.246094 2.109375 -9.335938 2.066406 -10.207031 L 2.125 -10.207031 L 2.964844 -7.847656 L 5.382812 -1.195312 L 5.960938 -1.195312 L 8.363281 -7.847656 L 9.191406 -10.207031 L 9.25 -10.207031 C 9.21875 -9.335938 9.191406 -8.246094 9.191406 -7.40625 L 9.191406 0 L 9.734375 0 L 9.734375 -10.710938 L 8.863281 -10.710938 L 6.5625 -4.25 C 6.285156 -3.453125 6.019531 -2.640625 5.722656 -1.828125 L 5.664062 -1.828125 C 5.371094 -2.640625 5.074219 -3.453125 4.777344 -4.25 L 2.492188 -10.710938 L 1.621094 -10.710938 Z M 1.621094 0 "/></g></g></g><g fill="#545454" fill-opacity="1"><g transform="translate(106.321904, 111.258733)"><g><path d="M 5.292969 0 L 7.074219 0 L 7.074219 -15.398438 L 13.90625 -15.398438 C 21.75 -15.398438 26.222656 -18.667969 26.222656 -25.40625 C 26.222656 -32.382812 21.652344 -34.933594 13.714844 -34.933594 L 5.292969 -34.933594 Z M 7.074219 -16.984375 L 7.074219 -33.34375 L 13.085938 -33.34375 C 20.640625 -33.34375 24.296875 -31.515625 24.296875 -25.40625 C 24.296875 -19.390625 20.738281 -16.984375 13.28125 -16.984375 Z M 7.074219 -16.984375 "/></g></g></g><g fill="#545454" fill-opacity="1"><g transform="translate(139.803753, 111.258733)"><g><path d="M 5.292969 0 L 23.433594 0 L 23.433594 -1.585938 L 7.074219 -1.585938 L 7.074219 -34.933594 L 5.292969 -34.933594 Z M 5.292969 0 "/></g></g></g><g fill="#545454" fill-opacity="1"><g transform="translate(168.956373, 111.258733)"><g><path d="M 7.21875 -13.953125 L 9.671875 -20.929688 C 11.164062 -25.164062 12.414062 -28.726562 13.714844 -33.105469 L 13.90625 -33.105469 C 15.203125 -28.726562 16.40625 -25.164062 17.898438 -20.929688 L 20.304688 -13.953125 Z M 25.164062 0 L 27.089844 0 L 14.578125 -34.933594 L 12.992188 -34.933594 L 0.527344 0 L 2.308594 0 L 6.6875 -12.414062 L 20.835938 -12.414062 Z M 25.164062 0 "/></g></g></g><g fill="#545454" fill-opacity="1"><g transform="translate(201.283752, 111.258733)"><g><path d="M 5.292969 0 L 6.976562 0 L 6.976562 -22.757812 C 6.976562 -26.078125 6.878906 -29.0625 6.785156 -32.335938 L 6.976562 -32.335938 L 10.96875 -25.453125 L 26.320312 0 L 28.246094 0 L 28.246094 -34.933594 L 26.511719 -34.933594 L 26.511719 -12.460938 C 26.511719 -9.191406 26.609375 -5.964844 26.800781 -2.597656 L 26.558594 -2.597656 L 22.566406 -9.480469 L 7.167969 -34.933594 L 5.292969 -34.933594 Z M 5.292969 0 "/></g></g></g><g fill="#545454" fill-opacity="1"><g transform="translate(239.479653, 111.258733)"><g><path d="M 5.292969 0 L 7.074219 0 L 7.074219 -12.316406 L 14.53125 -20.738281 L 26.464844 0 L 28.582031 0 L 15.878906 -22.132812 L 27.089844 -34.933594 L 24.828125 -34.933594 L 7.167969 -14.917969 L 7.074219 -14.917969 L 7.074219 -34.933594 L 5.292969 -34.933594 Z M 5.292969 0 "/></g></g></g></svg>